<?xml version="1.0" encoding="UTF-8"?>
<svg xmlns="http://www.w3.org/2000/svg" version="1.1" viewBox="0 0 1050 957.2">
  <defs>
    <style>
      .cls-1 {
        fill: #03bded;
      }
    </style>
  </defs>
  <!-- Generator: Adobe Illustrator 28.6.0, SVG Export Plug-In . SVG Version: 1.2.0 Build 709)  -->
  <g>
    <g id="Layer_2">
      <g id="Layer_1-2">
        <g>
          <g>
            <g>
              <g>
                <path class="cls-1" d="M488,393.9c-21.2,10.5-37.8,27.9-52.9,45.8-8.3,8-14.2,23.6-25.9,26.2-7.9,1.6,5,11.2,5.4,15.9-18.3,7.4-55-15.2-36.9-33.9,8.4-6.4,19.3-10.4,23.2-21.2,5.6-9.1,14.8-15.7,19-25.9,6.8-15.5,18.2-28,25.6-43.1,10-29.5,30.6-52.9,53.9-72.9,4.3-3.5,10.6-4.6,15.7-6.9,7.8-4.4,15.5-8.8,23.2-13.4,1-.6,2-1.9,2-2.9-.6-44.8-19.3-2,4.2-75.1,6.5-16.8,21.8-26.2,39.3-23.3,22,2.5,31,18.4,34.1,35.8,2.1,16,4.1,35.4-7.2,48.5-10.1,10.1-12.1,32.6,7.4,27.7,13.2-8.8,26-18.3,39-27.5,29.9-25.4,4.2-23.9,9.4-43,3.4-9.3,11.1-32.3,21.6-31.4,9,1.1,10.4-.7,12.1,8.5,5.8,13.9,7.5,27.6-1,40.6-15.3,25.6-33.7,49.3-47,76.2-2.2,4.6-6.3,8.8-10.5,11.8-25,17.7-9.4,50.3-12.5,75.5-1.7,40.1-8.5,79.9-12.7,119.8-5.7,70.1,42.7,51,62.7,107.6,6.9,26.3,41.1,32.7,31.1,61.2-2.4,7.4-5.1,14.9-6.1,22.6-3.5,32.9,4.5,66-3,98.7-7.5,29,56.7,37.5,76.5,46.7,7.6,2.8-.4,10.8-3.2,14.3-16,15.1-38.5,16-59.2,15-16.6-.8-33.7,3.2-50.2,1.1-31.4-10,5.5-59.8-12.7-93.9-9.4-21.3-16.5-43.2-9.3-66.3,5.2-15.8,4.4-37.3-16.7-38.4-9.6-.2-19.7,0-26.9-7.4-81.9-67.7-53.7-66.3-110.1-19.9-6.7,5.8-16.5,10-25.2,6.1-6.6-2.9-10.4-2.5-14.8,2.9-13.7,16.5-31,28.3-49.7,38.2-15.7,8.8-38.6,12.9-52.8-1.1-17-17.2-34.5-34.7-55.7-46.7-10.4-6-21.8,4.5-32.5-1.8-10.2-4.4-21-5.7-32-5.6-6.4.4-11.8-2.1-10.4-9.5,3.6-18.2,19.5-34,38.4-35.3,8.6-.6,16-4.8,23.4-8.8,20.1-13.9,36.4-6.3,32.5,18.7-3.4,12,19.5,11.3,27.1,14.4,52.8,15.1,23.2,35.2,69.4-37.8,21.6-32.8,38-70,65.2-98.7,3.9-3.7,4.2-5.6.2-9-8.6-5.6,18.3-23.8,16.3-50.8,0-9.2-.8-18.4-1.3-28.6h0Z"/>
                <path class="cls-1" d="M586.7,841.3c-2.1,74.1-111.8,70.7-110.7-2.3,1.8-71.6,111.9-69.8,110.7,2.3ZM538.1,823.1c-24.3,3.6-20.6,9.6-23.2,30.8,0,1.1,1.4,3.1,2.4,3.3,7.2,1.1,13.8,3.7,20.3,6.9,2.3,1.2,3.6.3,4.8-2.1,3-5.8,6.3-11.3,9.6-16.9,3.2-6.8-5.7-12.5-8-18.5-1.4-2.3-3-3.7-5.9-3.5h0ZM483.1,828.6c15.8.3,21.3-18.1,22.4-31-7.8,1.3-23.6,21.8-22.4,31ZM576.8,861.1c.3,0,.6,0,.9.1,5.3-11.1,7.7-25.4,1.2-36.4-5.4,3-4.6,9.1-6.3,14.2-2.4,8.2,1.8,14.9,4.3,22ZM529.5,789.6c2.8,10.5,18.5,16.3,28,13.8,13.7-7.7-22-14.3-28-13.8ZM502.5,881.9c.3-9.4-7.6-22.8-18-22.6,3.7,9.3,9.5,16.5,18,22.6ZM533.5,890.6c8,1.4,24.9-4.7,26.7-9.3-11.3-4-19.4,1.5-26.7,9.3Z"/>
              </g>
              <g>
                <path class="cls-1" d="M371.7,619.7c-9.9-6.3-20.9-10.7-32.5-13-38.5-75.8-57.7-170.6-41.5-287.5-52.1,21.3-120.7,9.6-162.7-27.3,5.1-38.8,14.5-79,27.6-116,24,76,116.4,126.2,194.8,103.1-32.9,130.9-16.6,238.1,24.5,323.7-3.4,5.7-6.8,11.4-10.2,17h0Z"/>
                <path class="cls-1" d="M521.2,774.5c-8.6,1.3-16.6,4.2-23.8,8.4-32.3-22.4-63.6-48.9-91.7-80,10.5-5.6,19.7-11.3,27.8-17.3,26.5,34,56.6,63.5,87.8,88.9h0Z"/>
                <path class="cls-1" d="M642.4,859.1c-14.2-5.5-29-11.8-44.2-18.8,0-4.2-.3-8.4-1.1-12.5,15.3,9.3,30.3,17.7,44.7,25.2,0,2,.2,4.2.6,6.1h0Z"/>
                <path class="cls-1" d="M681.4,872.2c-8.7-.6-17-5.4-26-8.1-.9-1.5-1.5-3.2-1.9-5.1,9.7,4.8,19,9.2,27.9,13.2h0Z"/>
                <path class="cls-1" d="M769.9,905.2C390.4,1089.8-43.4,754.7,3.5,343.4c43.3,69.5,143.1,94.2,213.8,53.6-.3,71.5,11.1,133.4,30.9,186.4-21.8,3.2-52.9,36.5-37.9,59.3,2.1,3.8,11.8,7.4,19.2,6.4,20.3-1.5,34,13.3,52.9,5.4,47.2,78.8,115,133.3,185,170.9-16.1,72.2,82,111.8,120.8,49.7,58.5,17.9,136.4,32.2,181.8,30.1h0Z"/>
                <path class="cls-1" d="M394.4,708c-4.2,1.5-8.2,2.7-12.2,3.4,29.7,34.3,63.2,63,97.6,87,2.3-3,4.9-5.8,7.7-8.3-32.8-23-64.6-50.2-93-82.1h0ZM769.4,904.3c-6.7.3-46.4-6.7-90.8-21.1q-29.6-9.6,0,0c-11.7,1-22.1-.7-30.4-10.4-16.3-6-33.5-12.8-51.2-20.9-.7,3.7-1.6,7.3-2.9,10.7,48.2,21.1,82.4,32.6,126.9,43.9C357.1,996.4,11.9,634.9,89.5,275.9c40.5,58.5,118.4,86.6,186.9,67.4-9.7,86.4-.3,160.2,21.5,223.1,5,0,9.7,1.7,13.6,4.6-25.1-67.5-35.4-148.2-22.2-243.4-76.4,30.9-171-7.1-204.8-81.5-104.8,393.9,288.4,794.3,685.4,658.2h-.5ZM394.4,708c-4.2,1.5-8.2,2.7-12.2,3.4,29.7,34.3,63.2,63,97.6,87,2.3-3,4.9-5.8,7.7-8.3-32.8-23-64.6-50.2-93-82.1h0ZM323,598.8c0,1.3-.2,2.6-.3,3.9.8.2,1.6.4,2.4.7-.7-1.5-1.4-3-2.1-4.5h0Z"/>
              </g>
              <path class="cls-1" d="M545.2,58.9c-138.3,0-261.7,63.3-343,162.7,8.7,9.1,22.5,22.5,36.4,32.2,398.9-448.1,1007.5,218.4,526.6,575.2,13.4,2.2,30.3,8.6,29.8,16.3-.4,5.8,2.1,15.6-3.4,24.5,358.6-227.7,185.5-819.8-246.4-811h0Z"/>
            </g>
            <g>
              <path class="cls-1" d="M320.9,63.5l-16.4,9,3.6,6.7,14-7.7,4.5,8.3-14,7.7,8,14.7-9.3,5.1-20.8-37.9,25.8-14.1,4.5,8.3h0Z"/>
              <path class="cls-1" d="M362.3,57.8c15.5,25.1-21.2,41.9-30,13.5-15.5-25.4,21.4-41.8,30-13.5ZM352.6,62.1c-2.9-5.8-4.2-11.2-10.5-9-5.9,3-2.3,8.7-.2,13.8,2.4,4.9,4.3,11.4,10.4,9,5.8-3.3,2.6-7.8.2-13.8Z"/>
              <path class="cls-1" d="M409.1,63.9l-8.8,3.1-20.2-15.9,7.2,20.5-10,3.5-14.3-40.8,8.8-3.1,20.2,15.9-7.2-20.5,10-3.5,14.3,40.8Z"/>
              <path class="cls-1" d="M450.7,53l-10.7,2.7-3.5-5.7-12.9,3.3-.5,6.8-10.8,2.8,4.5-45.8,8-2,25.9,38h0ZM431.5,42.1l-6.4-10.3-.9,12.1,7.3-1.9Z"/>
              <path class="cls-1" d="M482.4,25.8c5.9,23.2-10.3,24-28.2,26.6l-7.1-42.6c17.8-3.3,33.3-7.8,35.3,16ZM471.9,27.6c-1.1-10.1-3.5-12.6-12.8-10.2l4,24c10-.7,10.8-4.3,8.8-13.8Z"/>
              <path class="cls-1" d="M524.7,43.8l-10.6.8-1.4-17.1-11.3.9,1.4,17.1-10.6.8-3.4-43.1,10.6-.8,1.3,16.6,11.3-.9-1.3-16.6,10.6-.8,3.4,43.1h0Z"/>
              <path class="cls-1" d="M564.2,22.2c3.6,29.3-36.8,29.3-32.9-.2-3.5-29.5,36.8-29.1,32.9.2ZM553.6,22.1c-.2-6.5.9-11.9-5.8-12.6-6.6.3-5.7,7-5.9,12.5.2,5.5-.9,12.2,5.7,12.5,6.6-.6,5.6-6,5.9-12.5h0Z"/>
              <path class="cls-1" d="M603.9,25.4c1.2,29.5-39,26.2-32.7-2.9-1.1-29.8,39.1-25.9,32.7,2.9ZM593.3,24.5c.3-6.5,1.8-11.8-4.7-13-6.6-.3-6.2,6.5-6.9,11.9-.3,5.5-1.9,12.1,4.7,13,6.7,0,6.1-5.5,6.9-11.9h0Z"/>
              <path class="cls-1" d="M661.7,13.9l-17.9,22.5-3.5,17.2-10.4-2.1,3.5-17.2-7.7-27.7,11.4,2.3,3.6,16.6,9.7-13.9,11.3,2.3h0Z"/>
              <path class="cls-1" d="M692.8,44.9c-4.3,29.2-43.2,18.5-31.6-8.9,4.5-29.4,43.3-18.2,31.6,8.9ZM682.6,42c1.5-6.3,4-11.3-2.2-13.6-6.4-1.5-7.3,5.2-9,10.5-1.3,5.3-4.1,11.5,2.2,13.6,6.5,1.2,7-4.3,9-10.5h0Z"/>
              <path class="cls-1" d="M728.3,64.8c-5,15.2-28.8,11.7-31.5-3.1-2.1-6.1,9.2-28.7,10.7-34.6l9.9,3.7-9.8,26c-1.3,3.5-.3,6.6,3.2,7.9,3.3,1.4,6.6-.5,7.7-3.9l9.8-26,9.9,3.7-9.8,26.2h0Z"/>
              <path class="cls-1" d="M770.5,63.8l-9.6-4.5-14.3,30.5-9.6-4.5,14.3-30.6-9.6-4.5,4-8.6,28.9,13.6-4,8.6h0Z"/>
              <path class="cls-1" d="M789.1,113l-9.2-5.3,8.5-14.9-9.8-5.6-8.5,14.9-9.2-5.3,21.5-37.5,9.2,5.3-8.3,14.4,9.8,5.6,8.3-14.4,9.2,5.3s-21.5,37.5-21.5,37.5Z"/>
              <path class="cls-1" d="M850.3,114.7l-15.1-11.1-4.5,6.1,12.9,9.5-5.6,7.6-12.9-9.5-9.9,13.5-8.5-6.3,25.5-34.8,23.7,17.4-5.6,7.6h0Z"/>
              <path class="cls-1" d="M869.2,155.2c-10,12.5-31.1,1-28.5-13.9.2-6.4,18.5-23.7,22-28.8l8,6.9-18.2,21c-2.5,2.8-2.6,6.1.2,8.5,2.6,2.4,6.3,1.8,8.5-1l18.2-21,8,6.9-18.3,21.2h0Z"/>
              <path class="cls-1" d="M909,168.9l-7.5-7.6-24.1,23.7-7.4-7.6,24.1-23.7-7.5-7.6,6.7-6.6,22.4,22.7-6.7,6.6h0Z"/>
              <path class="cls-1" d="M917.3,210.2c-12.3,10.1-28.8-7.4-27.4-20.2l9.6.8c-.6,4.6,6.2,15.3,10.8,11.6,1.8-1.6,1.8-3.1.4-5.2-2.5-3.8-6.3-9.5-5.5-13.6,5.6-21.2,32.4-7.9,30.8,9.8l-9.4-.8c1.2-5.1-8-15-10.8-7.4,3,9.7,12.5,15.3,1.3,24.9h0Z"/>
              <path class="cls-1" d="M931.6,252.2l-6.5-9,4-5.4-7.8-10.8-6.5,2-6.5-9,44.3-12.4,4.8,6.7-26,37.9ZM934.7,230.4l7.2-9.7-11.6,3.6,4.4,6.1Z"/>
              <path class="cls-1" d="M948.2,280l-14.9-24.6,37-22.4,5.5,9.1-28.9,17.5,9.4,15.5-8.1,4.9h0Z"/>
              <path class="cls-1" d="M982.6,318.9c-23.2,5.7-30.1-26.7-6.8-33,19.9-13.9,40.2,12,21.1,26.3l-4.6-9.8c5.9-4.3,0-13-6.5-9.3-4.2,1.8-12.3,4.7-14.5,8.4-2,4,2.2,9,6.7,7.6l4.6,9.8h0Z"/>
              <path class="cls-1" d="M983.4,359.7l-3.7-9.9,16.1-6-3.9-10.6-16,6-3.7-9.9,40.5-15.1,3.7,9.9-15.6,5.8,3.9,10.6,15.6-5.8,3.7,9.9-40.5,15.1h0Z"/>
              <path class="cls-1" d="M995.2,401.1l-3-10.7,5.7-3.7-3.6-12.8-6.8-.3-3-10.7,45.8,3.6,2.2,7.9-37.4,26.7h0ZM1005.7,381.7l10.1-6.6-12.2-.7,2,7.3Z"/>
              <path class="cls-1" d="M1001.2,432.8l-5.5-28.2,42.4-8.2,2,10.4-33.1,6.4,3.5,17.8-9.3,1.8h0Z"/>
              <path class="cls-1" d="M1005.3,466.7l-3.3-28.5,42.9-5,1.2,10.5-33.5,3.9,2.1,18-9.4,1.1h0Z"/>
              <path class="cls-1" d="M1005.1,544.5l.5-9.3,22.4-12.7-21.7-1.1.5-10.6,43.2,2.2-.5,9.3-22.4,12.7,21.7,1.1-.5,10.6-43.2-2.2h0Z"/>
              <path class="cls-1" d="M1018.7,586.5c-26.6-1.5-19.8-39.9,5.8-32.8,7,1.1,13.6,1.2,17.8,6.9,8.4,10.6.4,28.3-13.3,27.3l1.5-10.6c5,0,7.5-6.4,4.3-9.9-4.5-3.3-13.9-3.6-19.3-3.5-6.7,1.3-5.1,12.1,1.8,11.8l.9-6.3,8.8,1.2-2.3,16.8-6-.8h0Z"/>
              <path class="cls-1" d="M992.4,619l6.3-28.7,42.2,9.3-6.3,28.7-9.2-2,4-18.3-7.1-1.5-3.4,15.7-9.2-2,3.4-15.7-7.4-1.6-4,18.3-9.2-2h0Z"/>
              <path class="cls-1" d="M978.6,663.6l8.7-26.4,8.5,2.8c.9,1.4,11.9,22,12.9,22.5,4.8,5.1,11.2-4.1,4.4-6.4l3.1-9.4c23.9,10.2-4.8,43.4-17,18l-7.2-13.2-4.9,14.9-8.5-2.8h0Z"/>
              <path class="cls-1" d="M978.5,698.8c-13-4.5-9.6-24.6,3.1-26.7,4.8-1.3,24.6,7.3,28.2,10.8,7.8,7.9,1.4,23.5-9.7,23.6-4.1.5-17.5-6.4-21.5-7.7h0ZM982.2,689.6l15.8,6.5c5.3,2.7,8.6-5.5,3-7.3-2.5-.5-16.9-8.2-19.2-6.7-3.4,1.4-3.3,6.3.4,7.5h0Z"/>
              <path class="cls-1" d="M951.7,723.7l12.4-24.9,8,4c1.9,3.3,7.6,24.2,11.4,25.6,4.6,2.8,8.5-5.2,3.4-7.2l4.4-8.9c22.2,13.5-11,42.3-19.4,15.4l-5.2-14.1-7,14-8-4h0Z"/>
            </g>
            <polyline class="cls-1" points="1006.6 501.9 1005.3 472.6 1048.5 470.8 1049.8 500.1 1040.3 500.5 1039.5 481.8 1032.3 482.1 1033 498.1 1023.5 498.5 1022.8 482.5 1015.2 482.8 1016 501.5 1006.6 501.9"/>
          </g>
          <path class="cls-1" d="M946.3,759.9c-1.6-.9-2.9-1.8-3.9-2.6s-1.9-1.8-2.5-2.8c-.7-1-1.2-2.3-1.6-3.8-.4-1.4-.5-3-.3-4.9.2-1.9.9-3.8,2-5.8,1.1-2,2.4-3.5,4-4.8,1.5-1.2,3-2,4.5-2.4,1.9-.5,3.6-.6,5.1-.3s3.3.9,5.4,1.8l-5,8.8c-2.8-1.2-4.9-.8-6,1.3-.6,1-.7,2-.4,3,.3,1.2,1.6,2.4,3.8,3.6,2,1.1,3.5,1.6,4.7,1.5,1.2-.2,2.1-.8,2.8-2,.6-1.1.8-2,.6-2.8s-.7-1.5-1.3-2.3l4.6-8.1,22.5,12.7-13.2,23.3-7.9-4.5,8.7-15.3-5.9-3.3c0,.7,0,1.6-.2,2.8-.2,1.1-.6,2.2-1.2,3.2-.9,1.6-1.9,2.9-3.2,3.9-1.2,1-2.5,1.7-3.7,2-2.2.6-4.3.7-6.1.3-1.9-.4-3.9-1.3-6-2.5h0Z"/>
        </g>
      </g>
    </g>
  </g>
</svg>